<svg width="443" height="443" viewBox="0 0 443 443" fill="none" xmlns="http://www.w3.org/2000/svg">
<path d="M258.343 216.816C226.843 213.48 202.343 210.48 158.343 213.48C196.843 239.48 189.751 254.207 169.902 263.488C165.394 265.595 155.406 269.575 150.736 270.657C175.714 293.049 214.013 256.646 308.082 240.436C383.338 227.468 408.279 213.987 411.343 208.868C401.221 210.025 391.847 211.063 383.133 211.991C362.637 214.173 345.797 215.745 331.481 216.816C302 220 289.843 220.152 258.343 216.816Z" fill="#1E1E1E"/>
<path d="M282.06 289.815C271.629 294.519 260.922 299.478 249 305C247.674 305.614 246.333 306.235 244.976 306.863C238.059 313.245 226.954 334.971 224.539 347.326C223.574 336.675 219.228 326.451 208.821 323.206C202.913 325.809 197.137 328.316 191.555 330.702C204.563 355.06 211.445 373.052 211.445 402.96C211.445 402.96 216.01 402.96 221.343 402.96C226.677 402.96 230.759 402.96 230.759 402.96C230.759 354.44 250.836 321.007 282.06 289.815Z" fill="#1E1E1E"/>
<path d="M230.759 40C230.759 40 226.677 40 221.343 40C216.01 40 211.445 40 211.445 40C211.445 136.622 133.969 212.96 41 212.96C41 212.96 41.0001 216.774 41.0001 221.48C41.0001 226.185 41 230 41 230C82.4976 230 120.909 245.209 150.72 270.643C150.726 270.648 150.731 270.652 150.736 270.657C155.406 269.575 165.394 265.595 169.902 263.488C149.493 244.533 124.872 229.993 97.4894 221.48C156.054 203.272 201.985 157.498 221.102 99.9191C238.754 153.086 279.268 196.188 331.481 216.816C345.797 215.745 362.637 214.173 383.133 211.991C298.408 202.862 230.759 130.286 230.759 40Z" fill="#1E1E1E"/>
<path d="M401.203 212.96C395.107 212.96 389.078 212.631 383.133 211.991M154.543 268.591C154.928 268.507 150.955 270.444 150.72 270.643M150.736 270.657C175.714 293.049 214.013 256.646 308.082 240.436C383.338 227.468 408.279 213.987 411.343 208.868C401.221 210.025 391.847 211.063 383.133 211.991M150.736 270.657C155.406 269.575 165.394 265.595 169.902 263.488M150.736 270.657C150.731 270.652 150.726 270.648 150.72 270.643M150.736 270.657C150.706 270.664 150.702 270.659 150.72 270.643M169.902 263.488C189.751 254.207 196.843 239.48 158.343 213.48C202.343 210.48 226.843 213.48 258.343 216.816C289.843 220.152 302 220 331.481 216.816M169.902 263.488C149.493 244.533 124.872 229.993 97.4894 221.48C156.054 203.272 201.985 157.498 221.102 99.9191C238.754 153.086 279.268 196.188 331.481 216.816M169.902 263.488C170.606 264.141 171.304 264.8 171.998 265.464C164.995 267.205 158.387 269.215 151.951 271.704C151.543 271.348 151.132 270.995 150.72 270.643M401.343 212.98L344.714 221.48C340.227 220.085 335.813 218.528 331.481 216.816M150.72 270.643C120.909 245.209 82.4976 230 41 230C41 230 41.0001 226.185 41.0001 221.48C41.0001 216.774 41 212.96 41 212.96C133.969 212.96 211.445 136.622 211.445 40C211.445 40 216.01 40 221.343 40C226.677 40 230.759 40 230.759 40C230.759 130.286 298.408 202.862 383.133 211.991M331.481 216.816C345.797 215.745 362.637 214.173 383.133 211.991M282.06 289.815C271.629 294.519 260.922 299.478 249 305C247.674 305.614 246.333 306.235 244.976 306.863C238.059 313.245 226.954 334.971 224.539 347.326C223.574 336.675 219.228 326.451 208.821 323.206C202.913 325.809 197.137 328.316 191.555 330.702C204.563 355.06 211.445 373.052 211.445 402.96C211.445 402.96 216.01 402.96 221.343 402.96C226.677 402.96 230.759 402.96 230.759 402.96C230.759 354.44 250.836 321.007 282.06 289.815Z" stroke="#1E1E1E" stroke-width="6" stroke-linejoin="round"/>
</svg>
